 <svg  version="1.0" xmlns="http://www.w3.org/2000/svg"  width="900.000000pt" height="900.000000pt" viewBox="0 0 900.000000 900.000000"  preserveAspectRatio="xMidYMid meet">  <g transform="translate(0.000000,900.000000) scale(0.100000,-0.100000)" fill="#000000" stroke="none"> <path d="M4467 7274 c-3 -4 -84 -12 -179 -20 -160 -12 -346 -38 -443 -62 -109 -27 -229 -63 -255 -77 -16 -8 -35 -15 -43 -15 -36 0 -372 -165 -465 -227 -35 -24 -65 -43 -67 -43 -16 0 -306 -215 -318 -235 -5 -9 7 -23 35 -44 46 -34 279 -252 364 -340 l51 -53 64 49 c72 56 197 143 206 143 4 0 14 6 22 14 23 20 173 96 266 135 44 18 94 39 110 46 17 7 50 18 75 24 25 7 61 17 80 22 19 6 64 17 100 24 36 8 85 18 110 23 25 6 109 13 188 17 l142 7 0 49 c0 26 -5 51 -11 55 -6 4 -8 17 -3 33 12 44 12 465 0 473 -14 9 -21 10 -29 2z m-71 -106 c40 3 44 -17 46 -198 1 -156 -1 -173 -18 -189 -29 -27 -148 -58 -247 -65 -48 -3 -106 -13 -130 -22 -23 -9 -64 -20 -92 -24 -59 -10 -160 -43 -230 -75 -27 -13 -66 -28 -86 -34 -20 -7 -63 -28 -95 -47 -33 -20 -68 -40 -79 -45 -11 -5 -42 -22 -70 -39 -27 -16 -57 -33 -65 -37 -8 -4 -33 -19 -54 -35 -21 -15 -44 -28 -49 -28 -6 0 -18 -6 -26 -14 -9 -7 -30 -16 -48 -19 -33 -6 -47 3 -48 33 0 10 -8 14 -23 13 -32 -4 -62 14 -62 36 0 12 -10 21 -26 25 -16 4 -29 17 -35 35 -6 17 -20 32 -33 35 -16 4 -25 15 -29 36 -4 18 -13 30 -22 30 -29 0 -18 59 18 91 78 72 131 112 202 150 22 12 47 27 55 34 8 7 51 32 95 55 44 23 84 46 90 51 5 5 15 9 22 9 7 0 35 14 61 30 27 17 59 30 70 30 21 0 67 17 125 46 16 8 37 14 48 14 11 0 38 9 60 20 22 12 43 19 47 16 4 -3 40 6 78 19 64 21 180 43 349 65 33 4 87 6 120 3 33 -3 70 -5 81 -5z"/> <path d="M4572 7257 c-8 -10 -9 -37 -2 -98 13 -110 13 -262 0 -389 -6 -56 -9 -105 -6 -107 3 -3 18 -5 33 -4 58 2 309 -22 327 -31 10 -6 42 -11 70 -13 28 -1 71 -12 96 -23 25 -11 66 -23 90 -27 25 -4 73 -20 108 -36 35 -16 69 -29 76 -29 7 0 21 -7 32 -15 10 -8 25 -15 32 -15 15 0 235 -123 279 -156 17 -13 36 -24 41 -24 5 0 16 -8 23 -17 8 -9 46 -40 84 -69 62 -46 110 -92 260 -249 72 -74 134 -160 183 -249 15 -27 32 -51 39 -53 6 -2 29 11 50 29 21 19 49 39 63 46 36 18 114 64 120 71 3 4 16 12 30 19 30 14 54 29 96 59 17 12 43 25 58 29 14 3 29 10 32 15 3 5 13 9 23 9 10 0 24 7 31 15 10 12 9 20 -6 41 -11 15 -23 34 -29 43 -5 9 -22 32 -37 52 -16 20 -28 40 -28 43 0 6 -70 96 -125 159 -13 15 -25 32 -27 36 -4 12 -137 159 -167 185 -13 11 -57 52 -98 90 -40 38 -99 86 -131 108 -31 21 -79 57 -107 79 -27 22 -68 49 -90 61 -22 11 -47 26 -55 33 -22 19 -319 175 -334 175 -3 0 -25 8 -49 18 -54 24 -207 72 -228 72 -8 0 -19 4 -25 9 -16 15 -284 80 -359 86 -22 2 -74 9 -115 14 -76 11 -87 12 -117 9 -10 -1 -43 2 -74 6 -42 5 -58 4 -67 -7z m279 -62 c5 -4 51 -13 102 -20 165 -25 212 -34 249 -50 21 -8 48 -15 62 -15 14 0 28 -4 31 -10 3 -5 21 -10 39 -10 18 0 43 -8 55 -19 12 -10 70 -35 130 -54 112 -37 349 -150 411 -196 19 -14 43 -30 52 -36 66 -39 177 -122 196 -146 15 -18 33 -29 49 -29 20 0 24 -4 20 -20 -3 -11 -2 -20 2 -20 34 0 265 -228 324 -321 11 -16 22 -29 26 -29 5 0 16 -16 27 -37 10 -20 29 -47 40 -61 41 -46 49 -57 61 -82 7 -14 20 -35 29 -47 15 -20 14 -23 -13 -40 -15 -9 -32 -23 -36 -30 -4 -7 -13 -13 -18 -13 -6 0 -66 -34 -134 -75 -68 -41 -129 -75 -135 -75 -6 0 -13 7 -16 15 -7 17 -30 20 -39 5 -4 -6 -1 -17 5 -25 10 -12 10 -15 -1 -15 -13 0 -59 60 -59 76 0 4 -11 22 -25 40 -14 18 -25 39 -25 48 0 19 -23 33 -28 18 -5 -16 -22 -5 -22 14 0 9 -14 27 -30 41 -22 18 -29 31 -24 45 5 17 3 19 -14 13 -16 -4 -25 1 -39 22 -20 31 -115 123 -143 138 -10 6 -28 22 -39 37 -12 15 -32 30 -44 34 -12 3 -33 18 -47 31 -27 28 -154 110 -222 145 -24 11 -52 29 -63 38 -11 10 -38 23 -59 30 -22 7 -53 21 -70 31 -17 9 -51 23 -76 29 -25 7 -52 20 -61 29 -9 10 -45 24 -80 31 -35 7 -72 17 -82 22 -10 5 -52 14 -95 19 -42 6 -104 14 -137 18 -52 7 -218 38 -252 47 -17 4 -26 136 -20 311 3 87 6 159 6 160 2 4 223 -7 232 -12z"/> <path d="M2537 6453 c-138 -139 -184 -189 -232 -249 -21 -27 -44 -53 -50 -59 -6 -5 -33 -41 -60 -80 -26 -38 -60 -86 -74 -105 -30 -40 -47 -66 -61 -95 -6 -11 -19 -33 -30 -50 -11 -16 -22 -37 -26 -45 -3 -8 -9 -22 -14 -30 -25 -43 -112 -224 -138 -290 -43 -106 -86 -242 -106 -335 -9 -44 -23 -109 -31 -145 -21 -96 -29 -167 -41 -398 l-7 -142 309 2 309 3 -3 25 c-9 83 14 359 33 390 3 6 10 31 15 58 13 69 44 170 68 224 12 26 22 54 22 62 0 16 76 177 128 271 34 62 153 241 184 276 13 15 39 46 58 69 54 66 219 232 273 274 26 21 45 42 41 47 -3 5 -29 27 -57 48 -29 21 -130 115 -226 210 -95 94 -174 171 -175 171 -1 0 -50 -48 -109 -107z m175 -32 c32 -12 243 -220 252 -247 7 -24 -8 -74 -24 -74 -5 0 -10 -11 -10 -25 0 -18 -7 -26 -25 -31 -14 -3 -25 -11 -25 -16 0 -6 -20 -30 -45 -55 -25 -24 -45 -47 -45 -52 0 -4 -18 -20 -40 -37 -22 -16 -40 -37 -40 -46 0 -10 -9 -22 -20 -28 -11 -6 -29 -29 -40 -51 -12 -22 -27 -42 -35 -46 -8 -3 -24 -24 -35 -47 -23 -48 -35 -68 -73 -118 -15 -20 -36 -56 -48 -80 -11 -24 -24 -50 -28 -58 -55 -92 -132 -302 -166 -450 -9 -41 -23 -100 -31 -131 -8 -30 -17 -91 -20 -135 -8 -108 -19 -141 -50 -148 -19 -5 -24 -11 -19 -26 8 -27 -38 -35 -203 -33 -135 0 -170 9 -144 35 19 19 14 28 -13 28 l-26 0 5 131 c7 156 22 291 40 339 7 19 19 67 26 105 15 81 32 126 55 145 9 7 13 21 10 31 -7 21 20 107 40 129 7 8 25 48 39 89 27 77 50 121 65 121 5 0 11 16 14 37 4 20 29 69 57 109 27 41 50 79 50 87 0 7 8 19 18 28 9 8 37 47 62 86 25 40 55 77 67 82 12 6 25 22 29 36 4 15 13 25 24 25 9 0 25 16 36 35 10 20 29 43 41 51 13 8 29 30 37 49 11 25 21 35 37 35 15 0 19 4 15 16 -7 18 19 43 44 44 8 0 20 10 25 23 6 12 21 23 35 25 14 2 29 8 35 13 11 11 18 11 47 0z"/> <path d="M4155 5885 c-34 -18 -72 -44 -85 -58 -79 -75 -327 -335 -337 -352 -43 -71 -48 -90 -48 -195 0 -102 1 -106 32 -150 17 -25 123 -138 236 -252 221 -223 221 -224 327 -221 83 2 117 9 151 31 53 33 400 384 415 420 8 18 23 41 34 52 21 21 26 55 10 65 -5 3 -10 28 -10 55 0 27 5 52 10 55 18 11 11 34 -25 85 -19 27 -34 53 -33 57 2 5 -23 33 -55 64 -31 31 -57 62 -57 67 0 6 -8 13 -19 17 -10 3 -36 26 -57 51 -51 60 -153 164 -182 187 -13 10 -34 22 -48 27 -13 5 -24 14 -24 20 0 5 -18 10 -40 10 -22 0 -40 -4 -40 -10 0 -5 -13 -10 -29 -10 -17 0 -33 5 -36 10 -10 16 -26 12 -90 -25z m268 -80 c35 -20 241 -226 264 -266 10 -16 27 -32 39 -35 13 -3 36 -32 59 -72 46 -81 50 -141 16 -244 -24 -71 -13 -59 -317 -355 -18 -18 -38 -33 -43 -33 -5 0 -23 -11 -39 -25 -29 -24 -71 -30 -182 -26 -18 1 -74 51 -213 192 -192 196 -218 231 -237 315 -9 40 -8 58 9 113 19 62 29 75 181 236 192 202 227 227 325 235 48 4 76 2 90 -7 11 -7 32 -20 48 -28z"/> <path d="M6841 5895 c-14 -8 -31 -25 -38 -39 -8 -14 -22 -26 -31 -26 -10 0 -31 -14 -47 -30 -16 -17 -36 -29 -44 -28 -8 2 -17 -5 -19 -14 -2 -11 3 -18 11 -18 23 0 77 31 77 44 0 9 17 12 57 12 57 -1 58 -1 77 -41 10 -22 27 -51 37 -64 11 -13 19 -31 19 -40 0 -10 11 -33 25 -52 14 -19 33 -59 42 -89 8 -30 25 -71 36 -89 12 -19 24 -55 28 -80 8 -53 39 -142 58 -165 21 -25 60 -262 61 -366 0 -36 7 -96 15 -133 8 -37 12 -73 9 -80 -2 -7 -20 -21 -39 -31 -31 -17 -50 -18 -191 -12 -192 9 -206 14 -222 88 -6 29 -14 69 -17 88 -21 153 -27 191 -37 235 -6 28 -14 55 -18 60 -5 6 -11 33 -15 60 -4 28 -18 79 -32 115 -13 36 -30 79 -36 95 -6 17 -37 82 -69 147 -32 64 -58 127 -58 140 0 27 17 48 39 48 8 0 24 9 35 19 12 11 37 28 56 38 43 24 52 53 17 53 -14 0 -30 -7 -37 -15 -7 -8 -19 -15 -27 -15 -7 0 -16 -7 -19 -15 -4 -8 -11 -15 -16 -15 -6 0 -31 -10 -57 -23 -25 -13 -58 -27 -73 -30 -16 -4 -28 -13 -28 -21 0 -13 43 -98 65 -126 6 -8 22 -40 35 -70 13 -30 30 -62 37 -71 7 -8 13 -24 13 -35 0 -10 7 -28 15 -38 8 -11 15 -29 15 -40 0 -12 7 -30 15 -40 8 -11 15 -29 15 -41 0 -11 7 -31 16 -43 8 -13 13 -31 9 -42 -4 -12 3 -36 19 -62 16 -28 22 -48 17 -57 -5 -8 -3 -28 6 -48 8 -20 16 -63 18 -97 1 -33 10 -90 19 -126 9 -36 16 -89 16 -117 0 -36 4 -53 13 -53 6 -1 140 0 297 0 210 1 286 4 292 13 5 7 5 30 1 52 -4 22 -6 55 -5 73 1 18 -5 43 -13 56 -10 15 -16 55 -18 117 -2 52 -9 107 -15 122 -14 34 -18 86 -8 108 5 11 -2 27 -19 47 -21 25 -25 38 -20 65 5 24 2 37 -9 46 -9 8 -16 29 -16 48 0 20 -9 46 -20 61 -15 18 -19 34 -15 53 4 19 1 28 -9 32 -10 4 -16 19 -16 39 0 22 -7 37 -19 45 -13 8 -18 19 -14 34 4 14 0 25 -11 31 -9 5 -16 20 -16 32 0 13 -7 26 -15 30 -8 3 -15 16 -15 29 0 14 -7 30 -15 37 -8 7 -15 20 -15 30 0 10 -7 20 -15 24 -8 3 -15 15 -15 26 0 11 -7 23 -15 26 -8 4 -15 18 -15 34 0 20 -6 29 -21 33 -15 4 -20 11 -15 23 4 10 0 22 -11 30 -21 16 -21 16 -52 -1z"/> <path d="M5150 4793 c-14 -2 -49 -11 -78 -19 -50 -15 -79 -42 -550 -511 -273 -272 -512 -507 -531 -521 -19 -15 -58 -34 -88 -43 -49 -16 -57 -16 -105 0 -72 23 -93 35 -123 75 -22 28 -26 45 -26 97 -1 50 3 66 18 76 10 8 70 66 135 129 110 110 117 119 133 179 10 35 15 74 12 87 -3 13 -11 45 -17 71 -14 56 -59 118 -117 163 -85 65 -250 68 -347 7 -41 -26 -426 -408 -475 -472 -81 -106 -79 -268 4 -378 42 -55 561 -566 607 -596 19 -13 63 -29 99 -35 67 -12 319 -10 378 3 67 15 153 91 551 485 223 221 428 419 457 441 43 32 60 39 98 39 110 0 214 -133 160 -204 -8 -11 -15 -25 -15 -32 0 -6 -75 -88 -167 -181 -93 -93 -220 -222 -283 -287 -63 -65 -142 -142 -175 -172 -93 -84 -95 -87 -95 -102 0 -11 7 -13 33 -7 17 4 172 9 342 11 356 3 400 6 455 35 23 12 135 114 249 228 114 113 233 230 264 260 72 68 105 136 113 234 4 45 3 81 -4 93 -6 12 -7 26 -2 34 5 9 -1 32 -17 64 -19 38 -109 134 -344 369 -257 256 -330 323 -376 346 -58 29 -125 42 -173 34z m150 -116 c75 -44 629 -595 660 -657 30 -59 34 -213 6 -254 -39 -60 -238 -260 -281 -283 -13 -7 -27 -22 -30 -34 -4 -11 -20 -29 -37 -39 -17 -10 -35 -29 -42 -42 -6 -12 -28 -34 -49 -47 -20 -13 -37 -30 -37 -37 0 -6 -13 -17 -30 -23 -16 -5 -30 -14 -30 -19 0 -9 -53 -33 -115 -51 -26 -7 -95 -10 -195 -8 -208 6 -261 27 -202 82 15 14 30 25 34 25 5 0 8 7 8 15 0 14 34 55 45 55 8 0 85 80 107 111 48 65 61 79 74 79 8 0 14 3 14 8 0 4 30 39 66 77 134 143 173 233 144 337 -20 71 -111 147 -200 167 -40 9 -52 7 -100 -15 -30 -14 -71 -41 -91 -60 -23 -23 -39 -32 -43 -25 -13 20 -25 11 -32 -24 -8 -46 -22 -54 -44 -25 -25 33 -44 21 -69 -47 -19 -50 -32 -66 -92 -113 -39 -30 -75 -63 -81 -75 -19 -37 -468 -466 -527 -503 -14 -9 -29 -21 -33 -27 -13 -18 -131 -30 -258 -25 -161 7 -182 17 -329 162 -161 160 -155 151 -146 194 7 40 9 40 -78 18 -32 -8 -67 17 -67 48 0 11 -27 44 -60 74 -33 31 -74 80 -91 111 -30 51 -31 60 -27 133 5 92 10 100 143 236 50 50 98 103 108 118 10 14 24 26 32 26 8 0 15 5 15 11 0 13 118 131 172 172 49 38 165 49 218 22 85 -44 124 -104 121 -189 -3 -78 -24 -112 -136 -223 -62 -61 -107 -114 -111 -131 -4 -15 -10 -31 -14 -37 -8 -10 -24 -80 -35 -148 -3 -21 -14 -43 -25 -50 -21 -12 -27 -37 -10 -37 5 0 15 9 22 20 18 28 44 25 69 -9 50 -68 168 -125 254 -124 90 1 193 69 340 222 38 41 104 106 145 144 41 39 116 113 165 163 72 74 97 94 128 99 41 8 52 39 17 50 -32 10 -23 24 20 31 33 6 40 10 40 30 0 15 10 30 28 41 15 9 39 28 53 42 15 14 37 36 50 47 13 12 49 54 79 92 30 39 59 71 65 71 5 1 34 19 65 40 85 60 148 62 240 8z"/> <path d="M4844 4106 c-4 -10 -2 -22 4 -28 8 -8 13 -7 18 6 4 10 2 22 -4 28 -8 8 -13 7 -18 -6z"/> <path d="M7185 4439 c-52 -7 -103 -9 -305 -11 -19 0 -72 2 -117 5 -79 6 -83 5 -83 -14 0 -11 4 -28 10 -38 6 -12 6 -40 0 -77 -5 -33 -10 -102 -11 -154 -2 -52 -7 -101 -12 -108 -6 -7 -16 -45 -23 -85 -15 -88 -31 -155 -44 -182 -5 -11 -19 -51 -30 -90 -12 -38 -33 -92 -45 -120 -52 -110 -66 -141 -75 -155 -5 -8 -11 -22 -15 -30 -3 -8 -11 -24 -18 -35 -7 -11 -25 -43 -41 -70 -16 -28 -42 -67 -59 -88 -28 -36 -29 -39 -12 -57 10 -11 23 -20 30 -20 7 0 24 -11 39 -25 15 -14 30 -25 33 -25 3 0 32 -21 64 -47 32 -27 84 -68 115 -93 75 -60 74 -59 126 -108 l45 -43 49 68 c58 81 114 164 114 168 0 4 84 151 100 175 6 8 13 22 16 30 4 8 20 44 36 79 43 94 84 201 93 241 4 19 15 53 25 75 20 45 42 153 34 166 -2 5 1 19 9 31 15 25 45 203 52 313 2 39 9 124 14 190 13 156 16 152 -114 134z m41 -51 c8 -9 8 -201 -1 -273 -3 -27 -9 -92 -13 -143 -6 -73 -11 -96 -25 -103 -11 -7 -17 -22 -17 -46 0 -34 -18 -108 -42 -178 -6 -16 -13 -52 -17 -80 -4 -27 -19 -76 -34 -107 -15 -31 -27 -61 -27 -66 0 -14 -26 -70 -65 -137 -19 -33 -39 -70 -44 -82 -5 -11 -15 -24 -20 -28 -6 -3 -11 -15 -11 -26 0 -10 -15 -39 -32 -63 -18 -24 -51 -69 -72 -100 -38 -54 -40 -55 -59 -38 -19 16 -20 16 -34 -5 -18 -26 -36 -20 -88 28 -16 16 -33 29 -37 29 -4 0 -18 10 -31 23 -14 12 -46 38 -73 57 -50 37 -84 69 -84 81 0 4 11 10 24 13 33 8 45 45 20 63 -17 13 -17 15 4 56 12 23 26 49 32 57 11 18 90 189 90 196 0 3 11 29 24 58 14 29 30 73 36 97 6 24 20 67 30 94 16 39 39 154 40 197 0 4 7 5 15 2 16 -7 16 -8 20 132 1 39 6 77 10 84 4 7 9 34 10 61 2 27 8 56 15 64 6 7 10 29 8 47 l-3 33 90 3 c49 2 92 5 94 8 7 7 259 -1 267 -8z"/> <path d="M1673 4357 c-2 -4 -1 -27 2 -50 4 -23 8 -66 8 -96 0 -31 6 -73 13 -95 8 -21 14 -58 14 -81 0 -23 7 -59 15 -78 8 -20 15 -49 15 -65 0 -16 7 -46 15 -65 8 -20 15 -47 15 -61 0 -13 7 -37 15 -52 8 -16 15 -36 15 -45 0 -9 7 -30 15 -45 8 -16 15 -39 15 -52 0 -12 4 -30 10 -40 25 -45 80 -172 80 -185 0 -8 7 -17 15 -21 8 -3 15 -16 15 -29 0 -14 7 -30 15 -37 8 -7 15 -16 15 -21 0 -22 176 -299 190 -299 8 1 44 28 80 60 36 33 80 67 98 76 18 8 36 22 39 30 3 8 12 14 20 14 8 0 32 13 52 28 20 15 71 43 113 62 79 36 94 55 63 80 -8 7 -15 19 -15 26 0 7 -11 21 -24 29 -13 9 -26 30 -30 46 -3 17 -17 44 -31 61 -14 16 -28 41 -32 56 -3 15 -21 55 -40 89 -18 35 -33 72 -33 83 0 11 -9 24 -21 30 -11 7 -18 18 -15 25 5 14 -25 113 -44 147 -6 10 -10 31 -10 48 0 17 -7 47 -15 67 -8 19 -15 51 -15 69 0 19 -9 69 -21 112 -17 65 -19 83 -9 113 24 72 30 71 -304 72 -164 1 -300 -2 -303 -6z m265 -39 c9 -9 20 -9 47 1 25 9 40 9 54 2 11 -6 42 -11 70 -11 67 0 80 -21 102 -164 10 -61 27 -146 38 -190 12 -43 21 -89 21 -101 0 -12 8 -33 18 -46 10 -13 26 -49 36 -79 10 -30 29 -78 42 -107 13 -28 24 -56 24 -62 0 -10 14 -40 49 -106 57 -105 101 -196 101 -205 0 -5 -7 -10 -14 -10 -8 0 -27 -11 -42 -25 -16 -15 -39 -25 -56 -25 -22 0 -31 -6 -35 -20 -3 -11 -16 -23 -29 -26 -13 -3 -28 -12 -35 -20 -6 -8 -18 -14 -26 -14 -8 0 -28 -11 -45 -25 -40 -34 -65 -32 -86 6 -9 17 -26 43 -38 58 -12 14 -40 64 -64 111 -23 47 -46 92 -51 100 -42 71 -84 165 -95 213 -8 32 -20 68 -28 80 -8 12 -17 46 -21 76 -4 29 -15 72 -25 95 -10 22 -23 75 -30 116 -6 41 -16 93 -21 115 -12 53 -22 151 -21 199 2 47 17 67 46 61 11 -3 35 -1 51 4 42 13 49 13 63 -1z"/> <path d="M2660 3191 c0 -9 -235 -171 -249 -171 -4 0 -16 -9 -26 -20 -10 -11 -22 -20 -28 -20 -5 0 -23 -10 -40 -22 -18 -13 -49 -31 -69 -40 -48 -22 -48 -40 0 -93 20 -23 44 -50 53 -61 146 -180 263 -297 495 -494 61 -52 150 -114 309 -215 69 -44 172 -98 305 -157 25 -11 53 -24 62 -29 41 -21 279 -101 366 -123 147 -38 180 -45 227 -51 28 -4 64 -11 80 -15 17 -5 64 -12 105 -15 41 -3 104 -10 140 -15 36 -5 76 -10 90 -10 l25 0 0 300 0 300 -75 0 c-67 0 -119 7 -300 42 -134 25 -209 44 -255 63 -39 16 -95 35 -120 42 -11 3 -40 14 -65 25 -45 20 -71 31 -100 42 -8 3 -23 10 -32 16 -34 19 -53 29 -103 54 -27 13 -67 36 -88 50 -21 14 -40 26 -44 26 -3 0 -22 14 -43 30 -21 17 -42 30 -46 30 -5 1 -21 11 -35 23 -14 12 -59 49 -100 81 -109 88 -246 230 -329 339 -46 62 -79 97 -91 97 -11 0 -19 -4 -19 -9z m78 -200 c65 -76 163 -173 267 -266 37 -33 81 -72 98 -87 16 -16 35 -28 42 -28 7 0 20 -9 31 -21 10 -12 37 -30 59 -41 22 -12 51 -28 65 -38 52 -36 196 -118 220 -125 14 -4 53 -20 87 -36 34 -16 66 -29 72 -29 5 0 42 -14 82 -32 41 -17 85 -32 99 -34 29 -2 83 -21 122 -40 14 -8 42 -14 61 -14 19 0 79 -11 133 -25 55 -14 122 -26 149 -27 28 0 60 -7 73 -15 20 -12 23 -20 17 -52 -3 -20 -2 -57 4 -81 5 -24 7 -49 3 -54 -3 -6 -7 -46 -8 -89 -1 -44 -7 -84 -13 -90 -21 -21 -237 -3 -329 29 -23 7 -61 14 -84 14 -39 0 -109 19 -173 46 -16 7 -79 27 -140 45 -106 31 -161 53 -310 126 -38 18 -75 33 -81 33 -6 0 -17 7 -24 15 -6 8 -53 37 -103 65 -51 28 -115 67 -143 88 -106 77 -163 122 -169 131 -3 6 -25 23 -49 39 -38 26 -199 173 -250 230 -12 12 -44 48 -73 79 -30 32 -54 69 -57 87 -4 19 -15 35 -29 41 -41 19 -33 48 25 85 29 19 62 38 73 43 11 4 33 20 48 35 29 27 98 60 129 61 9 1 44 -30 76 -68z"/> <path d="M6212 3038 c-93 -118 -133 -162 -253 -274 -53 -49 -245 -194 -257 -194 -5 0 -27 -13 -48 -28 -36 -26 -197 -108 -271 -139 -18 -7 -47 -20 -65 -27 -18 -8 -60 -22 -93 -31 -33 -10 -72 -24 -87 -31 -14 -8 -43 -14 -65 -14 -21 -1 -49 -7 -63 -15 -14 -8 -45 -15 -70 -15 -25 0 -63 -5 -85 -10 -22 -5 -97 -12 -168 -16 l-127 -7 7 -66 c9 -74 11 -424 3 -486 l-5 -40 60 1 c93 0 277 19 435 44 68 10 143 28 210 51 14 4 45 13 70 19 46 11 161 51 215 74 106 45 242 111 310 151 33 19 69 39 80 44 51 22 279 187 350 252 22 20 56 50 75 65 61 50 237 234 335 352 32 39 27 50 -42 83 -24 12 -47 28 -50 35 -3 8 -11 14 -18 14 -6 0 -20 10 -31 21 -10 12 -50 45 -89 74 -73 55 -117 91 -169 138 -17 15 -35 27 -41 27 -7 0 -30 -24 -53 -52z m112 -83 c3 -8 12 -15 20 -15 9 0 30 -13 48 -28 18 -15 59 -45 90 -66 31 -21 71 -56 88 -78 31 -38 31 -39 14 -66 -16 -25 -118 -146 -154 -182 -9 -8 -70 -64 -136 -125 -132 -120 -230 -195 -256 -195 -9 0 -23 -8 -30 -18 -7 -10 -35 -31 -63 -47 -27 -16 -57 -34 -65 -41 -25 -20 -189 -104 -204 -104 -7 0 -19 -6 -25 -14 -6 -7 -37 -21 -69 -31 -31 -10 -70 -27 -87 -37 -16 -10 -38 -18 -47 -18 -10 0 -32 -6 -50 -14 -32 -13 -88 -31 -178 -56 -25 -7 -64 -19 -86 -26 -23 -7 -75 -15 -116 -17 -41 -2 -83 -9 -94 -15 -11 -6 -66 -12 -122 -14 -143 -4 -142 -6 -149 188 -8 215 -9 215 162 229 243 20 678 163 832 273 17 12 36 22 42 22 13 0 75 43 206 141 98 73 196 165 294 274 80 88 122 113 135 80z"/> <path d="M4465 1255 c-14 -13 -25 -30 -25 -37 0 -34 15 -60 42 -74 27 -14 32 -14 61 3 26 15 33 26 35 56 6 68 -65 101 -113 52z"/> <path d="M6941 1254 c-28 -35 -26 -65 3 -94 34 -31 74 -29 103 4 30 35 29 56 -5 89 -36 35 -74 35 -101 1z"/> <path d="M7668 1268 l-28 -10 0 -264 c0 -176 4 -273 11 -287 21 -41 51 -57 107 -57 65 0 92 13 92 45 0 35 -25 55 -60 48 l-30 -5 0 271 0 271 -32 -1 c-18 0 -45 -5 -60 -11z"/> <path d="M1341 1231 c-58 -23 -105 -69 -132 -128 -30 -66 -33 -269 -5 -323 47 -90 113 -130 214 -130 57 0 131 17 150 35 2 2 -2 21 -8 44 -12 46 -19 48 -90 25 -45 -15 -51 -14 -85 2 -57 27 -75 73 -75 196 0 93 2 107 24 139 35 51 77 67 122 46 19 -9 34 -21 34 -27 0 -23 39 -8 64 24 31 41 32 47 8 66 -59 50 -145 62 -221 31z"/> <path d="M5781 1234 c-109 -49 -147 -134 -101 -224 11 -21 32 -47 47 -58 34 -23 115 -62 130 -62 7 0 21 -12 33 -27 51 -65 -31 -157 -96 -108 -10 8 -26 15 -35 15 -9 0 -22 7 -29 15 -25 30 -56 18 -73 -27 -21 -52 -14 -60 66 -87 117 -40 215 -20 271 54 23 29 26 44 26 108 0 71 -2 76 -32 106 -33 31 -102 71 -124 71 -18 0 -84 70 -84 89 0 21 40 51 69 51 15 0 82 -26 122 -47 10 -6 49 65 49 87 0 40 -177 72 -239 44z"/> <path d="M4785 1199 c-47 -11 -55 -22 -55 -71 0 -38 -1 -38 -40 -38 -34 0 -41 -4 -46 -25 -10 -39 1 -53 43 -57 l38 -3 5 -158 5 -157 30 -20 c42 -28 147 -28 175 0 16 16 18 24 8 50 -10 30 -12 31 -53 24 -29 -4 -45 -2 -50 6 -10 16 -10 233 -1 249 5 7 20 9 40 6 40 -8 59 11 54 57 -3 33 -4 33 -53 33 l-50 0 3 58 c2 31 0 57 -5 56 -4 -1 -26 -5 -48 -10z"/> <path d="M1728 1074 c-21 -13 -50 -43 -65 -66 -26 -39 -28 -49 -27 -142 0 -86 4 -106 23 -138 34 -55 79 -78 158 -78 105 0 168 53 192 161 15 70 -1 179 -33 222 -50 69 -175 90 -248 41z m136 -83 c28 -31 42 -123 28 -178 -17 -61 -28 -73 -67 -73 -56 0 -70 27 -70 135 0 77 3 96 19 114 24 26 67 27 90 2z"/> <path d="M2270 1082 c-13 -9 -33 -25 -43 -35 -23 -23 -41 -18 -45 12 -2 12 -10 25 -17 28 -16 5 -82 -14 -90 -26 -2 -5 7 -32 21 -62 25 -52 26 -59 23 -199 l-4 -145 60 0 59 0 -3 130 c-3 139 5 175 42 206 62 52 81 7 76 -189 l-4 -147 59 -3 59 -3 -6 128 c-4 106 -2 134 11 163 31 65 85 91 101 48 4 -13 6 -94 3 -180 l-5 -158 62 0 61 0 0 175 c0 138 -3 181 -16 207 -19 40 -64 68 -109 68 -34 0 -105 -34 -105 -51 0 -18 -29 -8 -60 21 -37 35 -89 40 -130 12z"/> <path d="M2813 1082 c-48 -18 -52 -33 -23 -77 18 -27 20 -47 20 -192 l0 -163 60 0 60 0 0 149 0 149 29 31 c34 36 51 39 76 11 16 -18 17 -34 11 -180 l-8 -160 62 0 61 0 -7 118 c-7 129 2 179 39 220 24 26 49 28 68 5 11 -12 14 -55 14 -177 l0 -161 55 0 55 0 -4 185 c-4 200 -8 218 -62 246 -15 7 -42 14 -60 14 -32 0 -99 -34 -99 -51 0 -5 -11 -9 -25 -9 -14 0 -25 5 -25 11 0 20 -45 48 -79 49 -34 0 -101 -34 -101 -51 0 -5 -11 -9 -24 -9 -18 0 -27 8 -35 30 -5 17 -11 29 -13 29 -2 -1 -22 -9 -45 -17z"/> <path d="M3498 1088 c-2 -7 -2 -93 0 -191 l4 -179 34 -34 c30 -30 41 -34 86 -34 50 0 118 29 118 51 0 21 31 7 45 -21 17 -34 37 -37 83 -14 36 18 39 29 15 57 -15 16 -19 46 -23 196 l-5 176 -55 0 -55 0 -3 -145 -3 -145 -31 -32 c-39 -40 -80 -44 -95 -10 -6 13 -8 79 -5 171 4 120 2 150 -9 157 -21 13 -96 11 -101 -3z"/> <path d="M3983 1079 c-24 -10 -43 -22 -43 -26 0 -4 9 -23 20 -41 18 -29 20 -50 20 -197 l0 -165 60 0 60 0 0 145 0 144 35 36 c40 39 56 43 80 18 15 -14 16 -38 14 -177 l-4 -161 60 0 60 0 -4 185 c-4 203 -7 214 -69 244 -59 29 -133 13 -175 -38 l-17 -21 -18 21 c-9 12 -21 28 -27 37 -9 13 -15 13 -52 -4z"/> <path d="M5111 1081 c-37 -19 -62 -47 -91 -103 -29 -54 -28 -182 1 -238 32 -61 84 -90 160 -90 69 0 169 27 169 45 0 7 -5 26 -11 44 -12 34 -30 38 -69 16 -14 -8 -46 -14 -71 -15 -53 0 -83 24 -77 62 3 20 10 24 63 29 94 9 152 51 171 126 10 37 -26 103 -68 124 -46 24 -130 23 -177 0z m127 -108 c3 -28 -2 -35 -37 -57 -22 -15 -53 -26 -67 -26 -25 0 -26 2 -20 40 9 58 32 79 81 77 37 -2 40 -4 43 -34z"/> <path d="M6206 1082 c-37 -21 -56 -39 -81 -77 -17 -25 -20 -47 -20 -140 1 -101 3 -113 25 -143 40 -54 78 -72 154 -72 79 0 130 26 166 87 21 33 24 51 24 143 0 97 -2 108 -26 143 -14 21 -43 47 -64 57 -47 25 -137 25 -178 2z m130 -93 c24 -27 32 -179 12 -219 -17 -31 -71 -40 -98 -15 -44 40 -45 190 -3 237 22 24 66 23 89 -3z"/> <path d="M6662 1080 c-73 -40 -102 -103 -102 -226 0 -89 2 -100 26 -131 42 -56 79 -73 157 -73 66 0 127 19 127 40 0 5 -4 21 -10 35 -10 26 -11 26 -77 20 -66 -6 -69 -5 -87 22 -16 21 -20 44 -20 110 0 73 3 85 24 108 28 30 44 31 77 5 33 -26 43 -25 71 10 27 34 21 53 -24 80 -43 25 -115 25 -162 0z"/> <path d="M7285 1083 c-42 -22 -73 -51 -101 -95 -21 -33 -24 -50 -24 -128 0 -79 3 -95 24 -129 36 -57 75 -81 132 -81 40 0 53 5 80 31 36 35 61 34 66 -3 2 -12 11 -24 21 -26 20 -4 87 24 87 37 0 4 -10 27 -22 52 -21 40 -23 58 -22 187 l1 142 -26 6 c-14 3 -45 9 -68 15 -60 13 -114 11 -148 -8z m133 -133 c4 -70 -15 -158 -41 -187 -22 -25 -66 -30 -85 -11 -8 8 -12 46 -12 105 0 81 3 98 22 124 20 27 27 30 68 27 l45 -3 3 -55z"/> <path d="M4458 1078 c-2 -7 -1 -97 2 -199 5 -184 5 -187 30 -208 19 -16 36 -20 75 -18 l50 2 3 37 c3 32 -1 40 -22 49 l-26 12 -2 166 -3 166 -51 3 c-36 2 -53 -1 -56 -10z"/> <path d="M6944 1076 c-3 -8 -4 -98 -2 -199 3 -183 3 -185 28 -206 35 -28 125 -30 133 -2 9 36 -4 67 -31 77 l-27 10 0 164 0 165 -48 3 c-35 2 -49 -1 -53 -12z"/> </g> </svg> 